<?xml version="1.0" encoding="utf-8"?>
<!-- Generator: Adobe Illustrator 24.0.1, SVG Export Plug-In . SVG Version: 6.00 Build 0)  -->
<svg version="1.1" id="Ebene_1" xmlns="http://www.w3.org/2000/svg" xmlns:xlink="http://www.w3.org/1999/xlink" x="0px" y="0px"
	 viewBox="0 0 500 75.9" style="enable-background:new 0 0 500 75.9;" xml:space="preserve">
<style type="text/css">
	.st0{fill-rule:evenodd;clip-rule:evenodd;fill:#FAC415;}
	.st1{fill-rule:evenodd;clip-rule:evenodd;fill:#FFFFFF;}
	.st2{fill-rule:evenodd;clip-rule:evenodd;fill:#EE6946;}
	.st3{fill-rule:evenodd;clip-rule:evenodd;fill:#00AF87;}
	.st4{fill-rule:evenodd;clip-rule:evenodd;}
	.st5{fill-rule:evenodd;clip-rule:evenodd;fill:#FFFFFF;fill-opacity:0.5;}
</style>
<g transform="matrix(2 0 0 2 30 162.033)">
	<path class="st0" d="M-6.3-74.7c4.7-0.6,18.1-1,14.5,18.3l4.2-0.3c-1.8-11.9,2-18,13.9-18.6C6.5-86.2-4.8-74.9-6.3-74.7z"/>
	<path class="st1" d="M12.1-59.4C13.8-54.9,18-52,22.8-52c6.2,0,11.3-5.1,11.3-11.3c0-6.2-5.1-11.3-11.3-11.3
		c-1.3,0-2.7,0.2-3.9,0.7C13-71.8,10-65.2,12.1-59.4z"/>
	<circle class="st1" cx="-2.4" cy="-63.4" r="11.3"/>
	<circle class="st2" cx="-2.5" cy="-63.5" r="2.1"/>
	<circle class="st3" cx="22.7" cy="-63.5" r="2.1"/>
	<path class="st4" d="M32.9-70.8c0.5-1.8,1.4-3.5,2.5-5l-8.4,0c-5-3.2-10.9-4.8-16.8-4.7C4.1-80.7-1.9-79-7.1-75.8l-7.9,0
		c1.1,1.5,1.9,3.2,2.5,5c-1.6,2.2-2.5,4.8-2.5,7.5c0,6.9,5.7,12.6,12.6,12.6c3.8,0,7.5-1.7,9.8-4.7l2.7,4l2.7-4.1
		c2.4,3,6.1,4.8,9.9,4.8c6.9,0,12.6-5.7,12.6-12.6C35.4-66,34.5-68.7,32.9-70.8z M22.4-75.9c-6.4,0.2-11.7,5.2-12.2,11.6
		C9.7-70.7,4.4-75.8-2.1-76c3.9-1.6,8.1-2.4,12.3-2.4C14.3-78.4,18.5-77.6,22.4-75.9z M-2.4-53.3L-2.4-53.3
		c-5.5,0-10.1-4.5-10.1-10.1c0-5.5,4.5-10.1,10.1-10.1S7.7-68.9,7.7-63.4v0C7.7-57.8,3.1-53.3-2.4-53.3z M26.3-53.9
		c-5.2,1.9-11-0.8-12.9-6v0c-0.4-1.1-0.6-2.3-0.6-3.5c0-5.5,4.5-10.1,10.1-10.1c5.5,0,10.1,4.5,10.1,10.1
		C32.8-59.1,30.2-55.3,26.3-53.9z M-2.5-69.7L-2.5-69.7c-3.4,0-6.2,2.8-6.2,6.2c0,3.4,2.8,6.2,6.2,6.2c3.4,0,6.2-2.8,6.2-6.2v0
		C3.7-66.9,0.9-69.7-2.5-69.7z M-2.5-59.4L-2.5-59.4c-2.2,0-4.1-1.8-4.1-4.1c0-2.2,1.8-4.1,4.1-4.1c2.2,0,4.1,1.8,4.1,4.1
		C1.5-61.2-0.3-59.4-2.5-59.4z M22.7-69.7L22.7-69.7c-3.4,0-6.2,2.8-6.2,6.2c0,3.4,2.8,6.2,6.2,6.2c3.4,0,6.2-2.8,6.2-6.2v0
		C29-66.9,26.2-69.7,22.7-69.7z M22.7-59.4L22.7-59.4c-2.2,0-4.1-1.8-4.1-4.1c0-2.2,1.8-4.1,4.1-4.1s4.1,1.8,4.1,4.1
		C26.8-61.2,25-59.4,22.7-59.4z"/>
	<path class="st1" d="M163.9-77.3c0,1.3,1.1,2.4,2.4,2.4c1.3,0,2.4-1.1,2.4-2.4c0-1.3-1.1-2.4-2.4-2.4
		C165-79.7,163.9-78.6,163.9-77.3z"/>
	<path class="st4" d="M48.6-77.5l-3.7,1.3v4.8h-4.1v3.2h4v10.3c0,4.9,1.7,6.9,5.8,6.9c1,0,2.1-0.1,3-0.4l0.2,0l0-3.3l-0.3,0.1
		c-0.6,0.2-1.3,0.4-1.9,0.4c-1.9,0-2.7-1.1-2.7-4v-10h4.7v-3.2h-4.7v-6.2L48.6-77.5z M61.3-68.1v-3.3h-3.7v20.1h4.1v-10.1
		c0-4.2,1.8-6.6,5-6.6c0.5,0,1,0.1,1.5,0.2l0.3,0.1l0.1-4l-1.8-0.1C64.4-71.7,62.2-70.3,61.3-68.1L61.3-68.1z M90.4-71.9
		c-2.7,0-5.3,1.4-6.7,3.7v-3.3H80V-43h4.1v-11c1.4,2,3.8,3.2,6.2,3.1c5.2,0,8.5-4.2,8.5-10.8C98.8-67.8,95.4-71.9,90.4-71.9
		L90.4-71.9z M89.3-54.2c-3.2,0-5.2-2.8-5.2-7.2c0-4.3,2.1-7,5.4-7c3.2,0,5,2.6,5,7C94.5-57,92.5-54.2,89.3-54.2z"/>
	<path class="st1" d="M110.7-71.9c-2.3,0-4.6,0.5-6.7,1.4l-0.1,0.1l0,3.5l0.3-0.2c1.6-1,3.5-1.5,5.4-1.6c3,0,4.7,1.7,4.7,4.7v0.2
		H112c-6.7,0-10.4,2.4-10.4,6.9c0,3.5,2.7,6,6.5,6c2.6,0.1,5-1.1,6.5-3.2v2.9h3.7v-12.2C118.3-69,115.7-71.9,110.7-71.9L110.7-71.9z
		 M114.3-59.8c0,3.5-2.1,5.7-5.3,5.7l-0.2,0c-1.7,0-3.1-1.4-3.1-3.1l0,0c0-2.4,2.3-3.8,6.6-3.8h2.1V-59.8z M135.6-81v12.4
		c-1.4-2.1-3.8-3.3-6.3-3.2c-5,0-8.3,4.1-8.3,10.2c0,6.3,3.4,10.7,8.3,10.7c2.7,0.1,5.3-1.4,6.7-3.8v3.4h3.8V-81H135.6L135.6-81z
		 M130.3-54.3c-3.1,0-5-2.7-5-7.1c0-4.4,1.9-7.2,5-7.2c3.4,0,5.4,2.7,5.4,7.2C135.6-57.1,133.6-54.3,130.3-54.3z M158-71.4
		l-5.8,11.6l-5.4-11.6h-4.6l9.9,20.1l10.1-20.1H158z M168.2-71.4h-3.9v20.1h4.1v-20.1H168.2z M173.2-66.2c0,2.8,1.9,4.3,5.5,6.1
		c2.3,1.1,3.5,1.8,3.5,3.3c0,1.6-1.5,2.7-3.7,2.7c-1.8,0-3.5-0.5-5.1-1.3l-0.3-0.1l-0.1,3.5l0.1,0.1c1.7,0.7,3.5,1,5.3,1
		c5,0,8.2-2.4,8.2-6.1c0-3.1-2-4.6-5.6-6.3c-2.6-1.2-3.7-1.9-3.7-3.2c0-1.2,1.2-2,3.1-2c1.7,0,3.4,0.4,4.9,1.1l0.3,0.1l0.2-3.5
		l-0.2,0c-1.6-0.5-3.3-0.7-5-0.8C176.2-71.6,173.2-69.5,173.2-66.2L173.2-66.2z M199.3-71.9c-6.1,0-10,4-10,10.5
		c0,6.5,3.8,10.5,10,10.5c6.2,0,10-4,10-10.5C209.3-67.8,205.4-71.9,199.3-71.9z M199.3-54.1c-3.4,0-5.7-2.9-5.7-7.2
		c0-4.4,2.3-7.3,5.7-7.3c3.4,0,5.7,2.9,5.7,7.3C205-57,202.8-54.1,199.3-54.1z M216.8-68.1v-3.3h-3.7v20.1h4.1v-10.1
		c0-4.2,1.8-6.6,5-6.6c0.5,0,1,0.1,1.5,0.2l0.3,0.1l0.1-4l-1.8-0.1C219.9-71.7,217.8-70.3,216.8-68.1z"/>
	<path class="st4" d="M75.8-71.4h-3.9v20.1H76v-20.1H75.8z M71.5-77.3c0,1.3,1.1,2.4,2.4,2.4s2.4-1.1,2.4-2.4c0-1.3-1.1-2.4-2.4-2.4
		C72.6-79.7,71.5-78.6,71.5-77.3z"/>
	<path class="st5" d="M234-74.2c0.7,0.7,1,1.6,1,2.6c0,1-0.4,1.9-1.1,2.6c-0.7,0.7-1.6,1.1-2.6,1.1c-1,0-1.9-0.4-2.6-1.1
		c-0.7-0.7-1-1.6-1-2.5c0-1,0.4-1.9,1.1-2.6c0.7-0.7,1.6-1,2.5-1C232.3-75.4,233.3-75,234-74.2z M229.3-73.8
		c-0.6,0.6-0.9,1.3-0.9,2.2c0,1.6,1.3,3,3,3c0.8,0,1.5-0.3,2.1-0.9c1.2-1.2,1.2-3,0-4.2c-0.6-0.6-1.3-0.9-2.1-0.9
		C230.6-74.7,229.8-74.4,229.3-73.8L229.3-73.8z M231.4-73.8c1.2,0,1.7,0.4,1.7,1.2c0,0.5-0.4,1-0.9,1.1l0.9,1.8H232l-0.8-1.6h-0.3
		v1.6h-1.1v-4H231.4z M230.9-72h0.4c0.5,0,0.7-0.2,0.7-0.5c0-0.4-0.2-0.5-0.8-0.5h-0.3V-72z"/>
</g>
</svg>
