<svg id="Ebene_1" data-name="Ebene 1" xmlns="http://www.w3.org/2000/svg" xmlns:xlink="http://www.w3.org/1999/xlink" viewBox="0 0 69.12 69.39"><defs><style>.cls-1{fill:none;}.cls-2{clip-path:url(#clip-path);}.cls-3{fill:#fff;}</style><clipPath id="clip-path" transform="translate(-1.98 -1.81)"><rect class="cls-1" width="73" height="73"/></clipPath></defs><title>instagram white</title><g class="cls-2"><path class="cls-3" d="M55.64,36.43h0V26.59a9.7,9.7,0,0,0-9.35-9.32q-9.72,0-19.44.06a9.37,9.37,0,0,0-9.62,9.57V46.22c0,6.15,3.83,10,10,10H45.93a9.31,9.31,0,0,0,9.71-9.72V36.43M36.57,1.81c19-.09,35,14.59,34.52,35.63C70.65,56.66,55.72,71.6,35.61,71.18,16.61,70.79,1.92,55.6,2,36.37S17.2,1.62,36.57,1.81" transform="translate(-1.98 -1.81)"/><path class="cls-3" d="M21.36,34.53h6c0,1.17.06,2.32,0,3.47-.28,4.77,3.83,8.72,8.43,9.34,5.65.76,10.7-4.68,10.12-10.28-.09-.83-.16-1.66-.25-2.62,1.79,0,3.44,0,5.09,0a.88.88,0,0,1,.59.57,5.26,5.26,0,0,1,.15,1.44q0,4.74,0,9.47c0,3.81-2.17,6.1-6,6.14-6.11.07-12.23.06-18.34,0-3.52,0-5.79-2.44-5.8-6s0-6.89,0-10.33V34.53" transform="translate(-1.98 -1.81)"/><path class="cls-3" d="M46.36,28.73c.69,0,1.37,0,2,0,.28,0,.72-.22.76-.41a11.85,11.85,0,0,0,.5-3.3c-.12-1.55-1.8-2.57-3.52-2.4-2.13.22-2.52.66-2.51,2.77V26c0,2.76,0,2.76,2.72,2.76M21.29,30.18a31.77,31.77,0,0,1,.28-4.41,5.25,5.25,0,0,1,5.3-4.28q9.6-.06,19.18,0a5.25,5.25,0,0,1,5.29,4.58,25.64,25.64,0,0,1,0,3.93c-2.73,0-5.5.08-8.26,0A9.07,9.07,0,0,1,39.89,29,8.32,8.32,0,0,0,33.43,29a25.47,25.47,0,0,1-5.74,1.19c-2,.2-4.11,0-6.4,0" transform="translate(-1.98 -1.81)"/><path class="cls-3" d="M33.52,37.74q0-3.09,3-3.11a3,3,0,0,1,3.33,3.25,3.19,3.19,0,0,1-3.27,3.28c-1.87,0-3-1.32-3-3.42" transform="translate(-1.98 -1.81)"/></g></svg>