<svg id="Ebene_1" data-name="Ebene 1" xmlns="http://www.w3.org/2000/svg" xmlns:xlink="http://www.w3.org/1999/xlink" viewBox="0 0 69 69.49"><defs><style>.cls-1{fill:none;}.cls-2{clip-path:url(#clip-path);}.cls-3{fill:#fff;}</style><clipPath id="clip-path" transform="translate(-2.04 -1.76)"><rect class="cls-1" width="73" height="73"/></clipPath></defs><title>twitter white</title><g class="cls-2"><path class="cls-3" d="M17,51.64,17,52a17.52,17.52,0,0,0,1.59,1,26.12,26.12,0,0,0,14.7,2.64c8.12-.87,14.22-4.93,18.62-11.7,2.32-3.58,3.27-7.63,4-11.75.39-2.16.76-4.24,2.68-5.73a7.48,7.48,0,0,0,1.34-2.26l-.27-.23-2.85.58c.88-1.39,2.17-2.32,1.89-4.07a29.83,29.83,0,0,0-3.42,1.11A2.87,2.87,0,0,1,52,21.09a9.22,9.22,0,0,0-14.33,5.15c-.34,1.27-.48,2.59-.71,3.9-7-.46-12.5-3.93-17.47-9.09A19.38,19.38,0,0,0,18,24.72c-.52,2.9.92,5.31,2.54,7.8l-2.46-.26c-.3,3.86,1.78,6.36,4.58,8.47-1.64,1-1.78,1.17-.72,2.58a16.27,16.27,0,0,0,3.23,3.19A16.15,16.15,0,0,0,28.27,48c-3.4,2.47-7.34,3-11.24,3.62M71,36.51c.56,18.36-14.8,35.21-35.38,34.72C16.2,70.78,2,54.28,2,36.46c0-17.4,13.75-34.67,34.5-34.7,19.82,0,35,16.2,34.48,34.75" transform="translate(-2.04 -1.76)"/></g></svg>