<svg id="Ebene_1" data-name="Ebene 1" xmlns="http://www.w3.org/2000/svg" xmlns:xlink="http://www.w3.org/1999/xlink" viewBox="0 0 643.77 75.42"><defs><style>.cls-1{fill:none;}.cls-2{clip-path:url(#clip-path);}.cls-3{fill:#82cdf0;}.cls-4{fill:#fff;}</style><clipPath id="clip-path" transform="translate(-28.4 -12.29)"><rect class="cls-1" width="700" height="100"/></clipPath></defs><title>The Berlin Expert Logo</title><g class="cls-2"><path class="cls-3" d="M57.4,87.71H49.65a3,3,0,0,1-.11-.58V55.39c0-.11,0-.22,0-.35h-4V79.32q0,3.27,0,6.52c0,.29,0,.52-.38.59s-1,.27-1.58.38c-.92.19-1.83.34-2.74.54-.42.09-.82.24-1.23.36H32.74c0-.2,0-.41,0-.61V53.83c0-1,0-1.07-1-1-.48,0-.7-.1-.64-.61a7,7,0,0,0,0-.92c0-.72,0-.75.72-.75a4.34,4.34,0,0,1,.51,0c.34,0,.43-.12.42-.45,0-1,0-1.9,0-2.85a1.15,1.15,0,0,0-.33-.72,10.07,10.07,0,0,0-1.17-.86c-.41-.28-.81-.56-1.23-.83a2.56,2.56,0,0,1-1.1-1.59c-.14-.48-.2-1-.37-1.45a1.1,1.1,0,0,1,1.05-1.55c1.12,0,2.24,0,3.36,0,.33,0,.42-.16.42-.42,0-1.33,0-2.67-.09-4a1.91,1.91,0,0,0-.22-.93,15,15,0,0,0-1.23-1.62c-.3-.34-.63-.52-.22-1.09.28-.39.44-.67.95-.67H63.23l2.71,0v-.59c0-.87.08-1,.94-1l2.19,0c.5,0,.62-.19.37-.62s-.66-1.07-.94-1.64a1.55,1.55,0,0,1-.14-.9c.13-.72.33-1.42.53-2.12a.72.72,0,0,0-.28-.93.71.71,0,0,1-.26-.41A13.36,13.36,0,0,1,68,22a.6.6,0,0,1,.15-.47,1.29,1.29,0,0,1,1.51.23c.48.79.94,1.6,1.4,2.41.2.35.41.68.86.69.61,0,1.23,0,1.84,0a.63.63,0,0,0,.66-.57c.37-1.74.77-3.48,1.14-5.22a.7.7,0,0,1,.81-.65,13.46,13.46,0,0,0,1.42,0c.19,0,.53-.18.53-.27,0-.62.26-1.28-.35-1.8a1,1,0,0,1-.29-1.38.85.85,0,0,0-.11-1.22c-.13-.15-.24-.32-.36-.49s-.31-.55,0-.8.53,0,.69.26c.28.4.55.42.92.1a.61.61,0,0,1,.58,0c.49.45.76.17,1.09-.19a.67.67,0,0,1,.59-.15c.28.1.3.39.14.64a7.22,7.22,0,0,0-.59.89,1,1,0,0,0,0,.78,1,1,0,0,1-.08,1.44,2.29,2.29,0,0,0-.43,1.81c0,.32.15.45.47.45h1.32c.72,0,.83.1,1,.82.38,1.69.77,3.37,1.14,5.06a.65.65,0,0,0,.75.59l1.63,0a.93.93,0,0,0,.85-.54c.49-.84,1-1.67,1.5-2.51a1.24,1.24,0,0,1,1.46-.33c.1.08.23.27.2.37-.2.71-.1,1.53-.72,2.11a.63.63,0,0,0-.12.54c.14.73.32,1.46.5,2.18a1.33,1.33,0,0,1-.17,1.16c-.31.49-.59,1-.87,1.49s-.16.66.37.67,1.29,0,1.94,0c1-.05,1.19.1,1.15,1.13a4.89,4.89,0,0,0,0,.54l.26,0c1.07-.06,2.14-.14,3.21-.16,1.6,0,3.2,0,4.79,0,8.33,0,16.65,0,25,0a.89.89,0,0,1,.91.66,1.12,1.12,0,0,1,0,.9c-.42.66-1,1.24-1.42,1.88a1.77,1.77,0,0,0-.37.83c0,1.32,0,2.65,0,4,0,.35.15.52.53.51.81,0,1.63,0,2.44,0s1.65,0,2.15.83v.41c-.07.07-.18.13-.2.21-.11.45-.18.9-.31,1.34a2.35,2.35,0,0,1-.47,1c-.74.68-1.57,1.26-2.36,1.89-.34.28-.93.55-1,.87-.11,1.21,0,2.43,0,3.71a3.65,3.65,0,0,1,1,0c.24.07.56.31.59.52a10.93,10.93,0,0,1,0,1.73c-.41,0-.77,0-1.11,0s-.52.11-.52.51q0,16.86,0,33.71c0,.24,0,.47,0,.71h-6.93l-1.57-.39c-.55-.13-1.11-.23-1.66-.34s-1.17-.3-1.76-.37-.83-.23-.83-.85V68c0-4.12,0-8.25,0-12.38,0-.5-.15-.63-.63-.61q-1.53,0-3.06,0c-.45,0-.57.15-.57.58q0,15.58,0,31.17c0,.33,0,.65,0,1h-7.75c-.51-.2-1-.42-1.53-.61-.76-.27-1.53-.52-2.29-.78a.79.79,0,0,1-.6-.88q0-14.93,0-29.85c0-.45-.13-.59-.58-.58-1.49,0-2,0-3.46,0-.53,0-.64.13-.64.64q0,15.74,0,31.48a3,3,0,0,1-.11.58H81.44c0-.19,0-.37,0-.56V74.93q0-9.68,0-19.36c0-.46-.14-.56-.58-.56-1.76,0-.45,0-2.21,0H77.23a2.57,2.57,0,0,0-.35.06V74c0,4.38,0,8.76,0,13.14a2.17,2.17,0,0,1-.21.62H66.57c0-.2,0-.41,0-.61q0-15.73,0-31.48c0-.46-.11-.62-.59-.61-1.51,0-2,0-3.51,0-.45,0-.58.11-.58.57q0,15,0,30v.52c-.69.25-1.35.51-2,.74s-1.13.35-1.69.55c-.27.1-.53.24-.8.37" transform="translate(-28.4 -12.29)"/><path class="cls-4" d="M672.17,38.48V32.55a1.07,1.07,0,0,0-1.09-1.09H651.49a1.07,1.07,0,0,0-1.09,1.09v5.93a1.07,1.07,0,0,0,1.09,1.09h5.78V86.62a1.06,1.06,0,0,0,1.09,1.09h6.71a1,1,0,0,0,1-1.09V39.57h5a1.07,1.07,0,0,0,1.09-1.09m-39.56,15c0,1.79-.46,2.89-2,2.89h-2.18V38.79h2.34c1.09,0,1.79.7,1.79,2Zm9.6,33.08L636,63.06c3.2-1.49,5.46-4.37,5.46-9.29v-13c0-6.16-4-9.36-11.08-9.36h-9.59a1.07,1.07,0,0,0-1.1,1.09V86.62a1.07,1.07,0,0,0,1.1,1.09h6.63a1.07,1.07,0,0,0,1.09-1.09V64.15h.78L633,86.62a1.18,1.18,0,0,0,1.33,1.09h6.87c.93,0,1.24-.39,1-1.17m-33.08.08V81.47A1.06,1.06,0,0,0,608,80.38h-9.52v-18H608a1.06,1.06,0,0,0,1.09-1.09V56.11A1.07,1.07,0,0,0,608,55h-9.52V38.79H608a1.07,1.07,0,0,0,1.09-1.09V32.55A1.07,1.07,0,0,0,608,31.46H590.8a1.06,1.06,0,0,0-1.09,1.09V86.62a1.06,1.06,0,0,0,1.09,1.09H608a1.07,1.07,0,0,0,1.09-1.09m-38.38-34.1c0,1.56-.63,2.5-2.19,2.5h-1.95V38.79h1.95c1.49,0,2.19.86,2.19,2.42Zm8.81-1.17v-9c0-6.63-3.58-10.92-11.07-10.92h-9.6a1.07,1.07,0,0,0-1.09,1.09V86.62a1.07,1.07,0,0,0,1.09,1.09h6.63a1.06,1.06,0,0,0,1.09-1.09V62.35h2.81c6.71,0,10.14-4.44,10.14-11M548.05,32.63c.31-.86,0-1.17-.94-1.17H539.7c-1.09,0-1.09.16-1.41,1.17l-5,17.4-4.52-17.4c-.24-.94-.32-1.17-1.25-1.17h-7.26c-1,0-1.4.47-1.17,1.17L528,58.37l-8.82,28.09c-.23.86.23,1.25.86,1.25h7.41c1.09,0,1.17-.24,1.4-1.25l4.53-17.94,5,17.94c.24.94.31,1.25,1.25,1.25H547c.94,0,1.25-.47,1-1.25l-9.6-28.09Zm-38.31,54V81.47a1.06,1.06,0,0,0-1.09-1.09h-9.52v-18h9.52a1.06,1.06,0,0,0,1.09-1.09V56.11A1.07,1.07,0,0,0,508.65,55h-9.52V38.79h9.52a1.07,1.07,0,0,0,1.09-1.09V32.55a1.07,1.07,0,0,0-1.09-1.09H491.41a1.07,1.07,0,0,0-1.1,1.09V86.62a1.07,1.07,0,0,0,1.1,1.09h17.24a1.07,1.07,0,0,0,1.09-1.09m-49.07,0V32.55a1.07,1.07,0,0,0-1.09-1.09H453a1.07,1.07,0,0,0-1.1,1.09V62.43c0,1.25.16,4,.24,5.7-.31-1.49-.78-4-1.09-5.07l-9.52-30.59c-.24-.78-.39-1-1.17-1h-7.88a1.06,1.06,0,0,0-1.09,1.09v54a1.16,1.16,0,0,0,1.24,1.17H439a1.11,1.11,0,0,0,1.17-1.17V56.81c0-1.63-.15-4.36-.23-5.69A40.44,40.44,0,0,0,441,56.19l9.52,30.43c.23.85.62,1.09,1.64,1.09h7.41a1.07,1.07,0,0,0,1.09-1.09m-40.26,0V32.55a1.06,1.06,0,0,0-1.09-1.09h-6.63a1.07,1.07,0,0,0-1.09,1.09V86.62a1.07,1.07,0,0,0,1.09,1.09h6.63a1.06,1.06,0,0,0,1.09-1.09m-18.56,0V81.47a1.06,1.06,0,0,0-1.1-1.09h-9.51V32.55a1.07,1.07,0,0,0-1.1-1.09h-6.63a1.07,1.07,0,0,0-1.09,1.09V86.62a1.07,1.07,0,0,0,1.09,1.09h17.24a1.07,1.07,0,0,0,1.1-1.09M362.68,53.46c0,1.79-.47,2.89-1.95,2.89h-2.18V38.79h2.34c1.09,0,1.79.7,1.79,2Zm9.6,33.08L366,63.06c3.2-1.49,5.46-4.37,5.46-9.29v-13c0-6.16-4-9.36-11.08-9.36h-9.6a1.07,1.07,0,0,0-1.09,1.09V86.62a1.07,1.07,0,0,0,1.09,1.09h6.63a1.07,1.07,0,0,0,1.1-1.09V64.15h.78l3.74,22.47a1.18,1.18,0,0,0,1.33,1.09h6.86c.94,0,1.25-.39,1-1.17m-33.08.08V81.47a1.06,1.06,0,0,0-1.09-1.09h-9.52v-18h9.52a1.06,1.06,0,0,0,1.09-1.09V56.11A1.07,1.07,0,0,0,338.11,55h-9.52V38.79h9.52a1.07,1.07,0,0,0,1.09-1.09V32.55a1.07,1.07,0,0,0-1.09-1.09H320.87a1.07,1.07,0,0,0-1.1,1.09V86.62a1.07,1.07,0,0,0,1.1,1.09h17.24a1.07,1.07,0,0,0,1.09-1.09m-39.16-9C300,79,299.57,80,298.4,80h-2.5V62.35h2.5c1.25,0,1.64.94,1.64,2.11Zm0-25C300,54,299.65,55,298.4,55h-2.5V38.79h2.19c1.32,0,2,1.09,2,2.66Zm8.81,23.17V65.24c0-3.35-1.87-5.54-4.21-6.24a7,7,0,0,0,4.21-6.79V42.62c0-6.71-3.9-11.16-10.76-11.16h-9.91a1.07,1.07,0,0,0-1.1,1.09V86.62a1.07,1.07,0,0,0,1.1,1.09H298.4c7.72,0,10.45-5.93,10.45-11.94m-51,10.85V81.47a1.06,1.06,0,0,0-1.09-1.09h-9.52v-18h9.52a1.06,1.06,0,0,0,1.09-1.09V56.11A1.07,1.07,0,0,0,256.74,55h-9.52V38.79h9.52a1.07,1.07,0,0,0,1.09-1.09V32.55a1.07,1.07,0,0,0-1.09-1.09H239.5a1.07,1.07,0,0,0-1.1,1.09V86.62a1.07,1.07,0,0,0,1.1,1.09h17.24a1.07,1.07,0,0,0,1.09-1.09m-30.35,0V32.55a1,1,0,0,0-1-1.09h-6.71a1.06,1.06,0,0,0-1.09,1.09V55h-4.14V32.55a1,1,0,0,0-1-1.09h-6.71a1.07,1.07,0,0,0-1.1,1.09V86.62a1.07,1.07,0,0,0,1.1,1.09h6.63a1.07,1.07,0,0,0,1.09-1.09V62.35h4.14V86.62a1.06,1.06,0,0,0,1.09,1.09h6.63a1.07,1.07,0,0,0,1.09-1.09M196.74,38.48V32.55a1.06,1.06,0,0,0-1.09-1.09H176.07A1.07,1.07,0,0,0,175,32.55v5.93a1.07,1.07,0,0,0,1.09,1.09h5.77V86.62a1.07,1.07,0,0,0,1.1,1.09h6.7a1,1,0,0,0,1-1.09V39.57h5a1.06,1.06,0,0,0,1.09-1.09" transform="translate(-28.4 -12.29)"/></g></svg>