<svg id="Ebene_1" data-name="Ebene 1" xmlns="http://www.w3.org/2000/svg" xmlns:xlink="http://www.w3.org/1999/xlink" viewBox="0 0 40.43 40.67"><defs><style>.cls-1{fill:none;}.cls-2{clip-path:url(#clip-path);}.cls-3{fill:#171717;}</style><clipPath id="clip-path" transform="translate(-2.05 -1.78)"><rect class="cls-1" x="2.05" y="1.78" width="40.43" height="40.67"/></clipPath></defs><title>facebook black</title><g class="cls-2"><path class="cls-3" d="M18.34,17.68a11.74,11.74,0,0,1-1.76.22c-.64,0-.74.3-.72.84,0,.76,0,1.52,0,2.27,0,1.72,0,1.77,1.7,2,.7.09.85.35.85,1,0,3.36,0,6.73,0,10.1v1.74c1.71,0,3.31,0,4.92,0,.82,0,.92-.38.91-1.09,0-3.61,0-7.21,0-10.82v-.85c1.06-.09,2-.14,3-.26a.76.76,0,0,0,.54-.47c.11-1.27.17-2.54.21-3.82,0-.4-.2-.63-.66-.63-.81,0-1.61,0-2.42-.06-.19,0-.52-.22-.53-.35,0-1,0-1.93,0-2.94,1.05-.16,2-.28,3-.45.2,0,.52-.27.53-.41,0-1.42,0-2.83,0-4.29a19.39,19.39,0,0,0-6,.17,4.13,4.13,0,0,0-3.22,3.25,16.69,16.69,0,0,0-.29,2.46c0,.79,0,1.6,0,2.41m24.13,4.38a20,20,0,0,1-20.3,20.39A20,20,0,0,1,2.06,21.31,19.9,19.9,0,0,1,22.5,1.78a20,20,0,0,1,20,20.28" transform="translate(-2.05 -1.78)"/></g></svg>