<svg id="Ebene_1" data-name="Ebene 1" xmlns="http://www.w3.org/2000/svg" xmlns:xlink="http://www.w3.org/1999/xlink" viewBox="0 0 40.41 40.7"><defs><style>.cls-1{fill:none;}.cls-2{clip-path:url(#clip-path);}.cls-3{fill:#171717;}</style><clipPath id="clip-path" transform="translate(-1.84 -1.66)"><rect class="cls-1" x="1.84" y="1.66" width="40.41" height="40.7"/></clipPath></defs><title>twitter black</title><g class="cls-2"><path class="cls-3" d="M10.62,30.88l0,.18a9,9,0,0,0,.93.58,15.35,15.35,0,0,0,8.61,1.55A14.3,14.3,0,0,0,31,26.33a18.11,18.11,0,0,0,2.35-6.87A4.88,4.88,0,0,1,35,16.1c.38-.29.53-.88.78-1.33l-.15-.13L33.91,15c.52-.81,1.27-1.36,1.1-2.38a17.39,17.39,0,0,0-2,.64A1.68,1.68,0,0,1,31.09,13a5.39,5.39,0,0,0-8.39,3c-.2.75-.28,1.52-.42,2.29C18.17,18,15,16,12.05,13a11.2,11.2,0,0,0-.87,2.14c-.31,1.7.53,3.11,1.49,4.57l-1.44-.15c-.18,2.26,1,3.73,2.68,5-1,.59-1.05.68-.42,1.51a9.3,9.3,0,0,0,1.89,1.87,9.33,9.33,0,0,0,1.82.89c-2,1.45-4.29,1.75-6.58,2.12M42.24,22A20.07,20.07,0,0,1,21.52,42.36a20.36,20.36,0,0,1,.53-40.7A20,20,0,0,1,42.24,22" transform="translate(-1.84 -1.66)"/></g></svg>