<svg id="Ebene_1" data-name="Ebene 1" xmlns="http://www.w3.org/2000/svg" xmlns:xlink="http://www.w3.org/1999/xlink" viewBox="0 0 40.49 40.64"><defs><style>.cls-1{fill:none;}.cls-2{clip-path:url(#clip-path);}.cls-3{fill:#171717;}</style><clipPath id="clip-path" transform="translate(-1.84 -1.76)"><rect class="cls-1" x="1.84" y="1.76" width="40.49" height="40.64"/></clipPath></defs><title>instagram black</title><g class="cls-2"><path class="cls-3" d="M33.27,22h0V16.27a5.7,5.7,0,0,0-5.48-5.46l-11.39,0a5.49,5.49,0,0,0-5.63,5.61V27.77a5.46,5.46,0,0,0,5.85,5.87h11A5.45,5.45,0,0,0,33.27,28V22M22.1,1.76c11.12-.05,20.5,8.54,20.22,20.87A19.89,19.89,0,0,1,21.53,42.39,20,20,0,0,1,1.84,22,20,20,0,0,1,22.1,1.76" transform="translate(-1.84 -1.76)"/><path class="cls-3" d="M13.19,20.92h3.53c0,.69,0,1.37,0,2-.16,2.79,2.24,5.1,4.94,5.47,3.31.44,6.26-2.74,5.93-6,0-.49-.1-1-.15-1.54,1,0,2,0,3,0,.12,0,.31.19.35.33a3.37,3.37,0,0,1,.08.84c0,1.86,0,3.71,0,5.56a3.27,3.27,0,0,1-3.51,3.59c-3.58,0-7.17,0-10.75,0a3.25,3.25,0,0,1-3.39-3.49q0-3,0-6v-.75" transform="translate(-1.84 -1.76)"/><path class="cls-3" d="M27.83,17.53c.41,0,.81,0,1.21,0,.16,0,.42-.14.44-.25a6.74,6.74,0,0,0,.29-1.93,1.77,1.77,0,0,0-2.06-1.4c-1.25.13-1.48.38-1.47,1.62v.35c0,1.62,0,1.62,1.59,1.62m-14.68.85a18.7,18.7,0,0,1,.16-2.58,3.1,3.1,0,0,1,3.11-2.52c3.74,0,7.49,0,11.23,0A3.08,3.08,0,0,1,30.75,16a14.52,14.52,0,0,1,0,2.29c-1.6,0-3.22,0-4.84,0A5.39,5.39,0,0,1,24,17.69a4.86,4.86,0,0,0-3.78,0,14.75,14.75,0,0,1-3.36.69c-1.2.12-2.41,0-3.75,0" transform="translate(-1.84 -1.76)"/><path class="cls-3" d="M20.31,22.81A1.6,1.6,0,0,1,22.07,21,1.73,1.73,0,0,1,24,22.89a1.87,1.87,0,0,1-1.91,1.92,1.77,1.77,0,0,1-1.79-2" transform="translate(-1.84 -1.76)"/></g></svg>