<svg id="Ebene_1" data-name="Ebene 1" xmlns="http://www.w3.org/2000/svg" xmlns:xlink="http://www.w3.org/1999/xlink" viewBox="0 0 69.02 69.44"><defs><style>.cls-1{fill:none;}.cls-2{clip-path:url(#clip-path);}.cls-3{fill:#fff;}</style><clipPath id="clip-path" transform="translate(-2.03 -1.78)"><rect class="cls-1" width="73" height="73"/></clipPath></defs><title>facebook white</title><g class="cls-2"><path class="cls-3" d="M29.85,28.94a23.68,23.68,0,0,1-3,.37c-1.1,0-1.27.51-1.23,1.43.05,1.29,0,2.59,0,3.88,0,2.94,0,3,2.9,3.38,1.19.15,1.45.6,1.44,1.68,0,5.75,0,11.5,0,17.25v3c2.91,0,5.65,0,8.39,0,1.41,0,1.58-.66,1.57-1.86-.06-6.16,0-12.31,0-18.47V38.13c1.81-.14,3.46-.23,5.09-.44a1.29,1.29,0,0,0,.92-.8c.18-2.17.29-4.35.36-6.52,0-.69-.34-1.08-1.13-1.07-1.37,0-2.75,0-4.12-.11-.33,0-.9-.38-.91-.6-.07-1.65,0-3.3,0-5,1.79-.25,3.47-.46,5.13-.76.34-.06.89-.45.89-.7.07-2.42,0-4.84,0-7.32-3.52-.18-6.92-.58-10.24.29a7,7,0,0,0-5.5,5.55,29.39,29.39,0,0,0-.49,4.19c-.08,1.36,0,2.73,0,4.13M71,36.4A34.13,34.13,0,0,1,36.39,71.22C16.94,71.07,1.35,56,2.05,35.13,2.67,16.52,17,1.72,36.94,1.78A34.1,34.1,0,0,1,71,36.4" transform="translate(-2.03 -1.78)"/></g></svg>