<svg id="Ebene_1" data-name="Ebene 1" xmlns="http://www.w3.org/2000/svg" xmlns:xlink="http://www.w3.org/1999/xlink" viewBox="0 0 688.35 487.86"><defs><style>.cls-1{fill:none;}.cls-2{clip-path:url(#clip-path);}.cls-3{fill:#82cdf0;}.cls-4{fill:#fff;}</style><clipPath id="clip-path" transform="translate(-5.83 -6.07)"><rect class="cls-1" width="700" height="500"/></clipPath></defs><title>The Berlin Expert Signature</title><g class="cls-2"><path class="cls-3" d="M252.77,152.81a6.29,6.29,0,0,1,1.47-.71,10.32,10.32,0,0,0,2.36-1.2,13.61,13.61,0,0,0,2.14-2.05,9.58,9.58,0,0,1,1.64-1.57,11.89,11.89,0,0,1,6.27-2.14,5.93,5.93,0,0,1,1.68.23c4.81,1.49,5.67,8.77,6.23,13.59.75,6.35-.61,13.86-4,22.31-3.23,7.94-7.18,13.56-12.12,19.55-4,4.83-8.93,7.12-14.67,9.78L241,211.88c-4.08-3.45-4.16-11.16-4.21-16.89,0-.52,0-1,0-1.51-.15-9.65,1.4-16.92,5.05-23.58.68-1.23,1.36-2.57,2.07-4,2.45-4.86,5.23-10.36,8.89-13.1m64,34.27c-2.25-6.57-3.16-12.19-2.85-17.62a28,28,0,0,1,1.58,4.79,45.14,45.14,0,0,1,1.27,12.83m9.72,9.39a32.73,32.73,0,0,0,1.31-3.84c0,.22.05.44.08.66a43,43,0,0,0,.78,4.58c.54,2.24,1.15,4.44,1.73,6.56.88,3.2,1.73,6.28,2.38,9.44a30.9,30.9,0,0,1-2.58-3.21c-.5-.7-1.06-1.41-1.66-2.15-1.46-1.84-3.13-3.92-3.41-5.72-.31-2,.5-4.08,1.37-6.32m55.41-28A51.6,51.6,0,0,1,385,158c3.8-7.21,12.12-10.86,20.6-13.7,2.26.17,2.65,1.1,2.78,1.42,1.41,3.47-3.56,12.32-6.69,15.6A66.42,66.42,0,0,1,392,170c-1.14.8-2.28,1.79-3.38,2.74-2,1.75-4.07,3.56-6.09,4.15a2.21,2.21,0,0,1-.57.1h-.14c-.3-.2-1.16-2.22.08-8.55m312-58.42a5.76,5.76,0,0,0-4-3.63,5,5,0,0,0-1.59-.25c-3.81,0-6.79,4.2-9,7.27-.5.71-1,1.38-1.34,1.81-6.48,7.77-13.34,16.11-19.58,25.14-4.82,7-9.28,14.25-13.6,21.28-5.72,9.32-11.64,19-18.4,27.91-.28.38-.63.91-1.08,1.58a32.81,32.81,0,0,1-4.16,5.43c-.25-.81-.5-2-.63-2.63s-.26-1.26-.39-1.7l-.09-.3c-.69-2.23-1.34-4.34-1.8-6.51-2.19-10.35-2.24-21.65-2.28-30.72,0-3.26-.17-6.55-.31-9.73-.1-2-.19-4.08-.25-6.12l0-.72c-.09-3.59-.21-8.06-3-11.38a5.78,5.78,0,0,0-4.5-2.26c-2.85,0-5.39,2.15-7.71,4.47-3.14,3.14-4.27,8.32-4.29,12.13a23.21,23.21,0,0,1-1.14,7c0,.12-.08.28-.14.46-.58,1.73-1.54,4.64.15,6.42a4.14,4.14,0,0,0,3,1.44c2.17,0,3.62-1.88,4.46-3.49.27,2.16.65,4.25,1,6.29.26,1.37.52,2.79.74,4.21a31.41,31.41,0,0,1,.25,4.89c0,1.07,0,2.17.06,3.3,0,.65.11,1.28.18,1.89.2,1.63.37,3-.25,4.15-.53.94-1.3,1.28-2.84,1.88-.27.11-.54.21-.81.33a15,15,0,0,0-2.29,1.26,10.57,10.57,0,0,1-1.92,1,4.47,4.47,0,0,1-1.26.17c-3.74,0-8.84-3.64-10.52-4.83a53.71,53.71,0,0,1-8-7.49c-.55-.59-1.09-1.18-1.64-1.76a42.41,42.41,0,0,1-7.53-11.21c-1.23-2.51-2.21-4.59-3.09-6.54-.19-.43-.43-1.14-.68-1.89-.89-2.67-1.61-4.65-2.91-5.72a6.74,6.74,0,0,0-4.4-1.48c-3.58,0-8.06,2.34-9,6.12a47.58,47.58,0,0,0-1.13,7.31c-.2,1.94-.39,3.77-.75,5.54a79,79,0,0,1-3.29,10.67c-.51,1.43-1,2.9-1.53,4.38-.17.49-.33,1-.49,1.48-1.24,3.79-2.41,7.37-4.71,10.34-2.53,3.27-5.43,5.23-7.77,5.23a4.15,4.15,0,0,1-1.05-.14c-1.74-.44-3.69-2.24-5.41-3.83-.74-.68-1.43-1.32-2.13-1.88-2.13-1.72-3.65-4.27-5.25-7-.76-1.27-1.54-2.58-2.39-3.81a46.09,46.09,0,0,1-4.63-9.42l-.8-2c-1.43-3.46-3.07-6.85-4.67-10.12-.75-1.55-1.53-3.15-2.27-4.73-1.89-4-4.49-9.56-9.4-11.53a5.63,5.63,0,0,0-2.15-.4,10.37,10.37,0,0,0-8.84,6.3,20.43,20.43,0,0,0-.84,3.95,19.56,19.56,0,0,1-.48,2.64,39.27,39.27,0,0,0-1.52,7.71,35,35,0,0,1-1.59,7.85,14,14,0,0,0-.4,3.92,12.09,12.09,0,0,1-.1,2.11,4.32,4.32,0,0,1-.95,2c-.28.4-.6.86-.93,1.44l-.09.16a7.73,7.73,0,0,0-2.89-4.37,5.46,5.46,0,0,0-3-1,4.23,4.23,0,0,0-3,1.28,8.42,8.42,0,0,0-2,5.72c0,.3,0,.73,0,1.25.31,9.29-1,10.35-1.32,10.47a1.68,1.68,0,0,1-.63-.18c-1-.45-2.61-2.9-3.49-4.21-.43-.65-.84-1.25-1.21-1.73a41.36,41.36,0,0,1-5.89-10.42c-3.53-9.18-5.39-17.05-5.7-24.08q0-.36,0-.78c-.1-3.05-.25-7.66-3.16-9.74a5.3,5.3,0,0,0-3.1-1,6.29,6.29,0,0,0-4.17,1.65,1.82,1.82,0,0,0-.38.45c-.19.3-.37.6-.54.92a2.05,2.05,0,0,0-.49-.06l-.34,0-.38,0a3,3,0,0,0-2.79,2.12,4.6,4.6,0,0,0,.13,3.77,5.32,5.32,0,0,1,.27.83,38.24,38.24,0,0,1,.61,6.75,44.25,44.25,0,0,0,.65,7.28c.2,1,.37,2.07.56,3.16a42.41,42.41,0,0,0,1.95,8.29l.2.54a7.19,7.19,0,0,0,2.66,3.95,5.84,5.84,0,0,0,2.08.9l.22.06a2.23,2.23,0,0,1,.26.26,19.08,19.08,0,0,1,2.41,4.81,28.66,28.66,0,0,0,2.11,4.51,80.62,80.62,0,0,0,5.75,8c-2.11.32-4.26.67-6.35,1.14a6.6,6.6,0,0,1-1.46.16,13.12,13.12,0,0,1-2.25-.25,20.11,20.11,0,0,0-3.41-.34h-.28c-1.31,0-2.64.07-3.92.12-1.86.07-3.78.14-5.65.14a38.56,38.56,0,0,1-9.74-1l-1.9-.49a97.31,97.31,0,0,1-14.65-4.53c-.32-.14-.77-.31-1.3-.52-5.4-2.12-7-3.32-7.38-4v0a15.56,15.56,0,0,1,4-2.52,31.22,31.22,0,0,0,2.77-1.55l1.22-.82c1.86-1.24,3.78-2.52,5.65-3.84a48.84,48.84,0,0,0,11.05-10.73l.88-1.15c5.26-6.85,13.2-17.2,7.77-26.64-2.56-4.46-7.06-6.81-13-6.81-6.59,0-13.51,2.83-17.8,5.48-10.84,6.69-17.36,15.43-20.52,27.51a44.26,44.26,0,0,0-1.5,10.51,16.87,16.87,0,0,0,.23,2.48,16,16,0,0,1,.23,3.6c-.42.35-2.07,1.07-8.45,1.41l-.92.05c-.5,0-1,0-1.52,0-9,0-18.16-4.76-22.37-11.57-1.8-2.92-2.72-6.86-3.61-10.68-.35-1.46-.67-2.85-1.05-4.2-.42-1.54-.76-3.18-1.12-4.92-.77-3.78-1.57-7.7-3.47-11.11a4.81,4.81,0,0,0-4.27-2.71c-3.45,0-6.66,3.67-7.75,6.16s-.73,6.93-.38,8.67a15.84,15.84,0,0,0,1,2.94c.07.16.14.31.2.46a7.54,7.54,0,0,0-3.71-1.06,6.41,6.41,0,0,0-1.23.12c-3.29.63-6.19,3.93-7.11,6.77-2,6.19-1.47,14.82-.42,20.32A76.36,76.36,0,0,0,310,200.09c2.57,5.43,1.14,7.41-2.67,12.71l0,0c-4,5.57-7.55,9.62-12.84,12.59a44,44,0,0,1-19.11,5.09h-2.05c-4.27,0-8.8-.26-13-2.17l-.22-.1a25.84,25.84,0,0,1-3.41-1.77,3.55,3.55,0,0,1-.46-.63,5.91,5.91,0,0,0-1.76-1.92A7.55,7.55,0,0,0,252,223a2.51,2.51,0,0,1-2.06-1.28c9.76-6.2,21.2-14.62,27.81-26,7.17-12.27,10.57-24.88,10.11-37.48a33.93,33.93,0,0,0-5.1-16.9c-3.75-5.72-9-8.74-15.16-8.74A20.65,20.65,0,0,0,264,133c-10.84,2-20.24,12.26-26.42,22.84a6.21,6.21,0,0,0,0-.84,51,51,0,0,0-.75-6.38c-.24-1.48-.47-2.87-.6-4.27-.69-7.19-1.61-15.49-3.87-23a27.35,27.35,0,0,1-.88-5.17,35.87,35.87,0,0,0-.91-5.52c-.73-2.62-1.62-5.23-2.49-7.76l-1-3c-5.89-17.77-11.92-31.21-19-42.3a141.21,141.21,0,0,0-30.51-34.27c-9.88-7.87-24.8-17.26-39.77-17.26-.88,0-1.76,0-2.61.1-6,.45-13.47,5.53-14.47,11.65a27.19,27.19,0,0,0,.21,7.41c.12,1.05.24,2.05.29,3,0,.49,0,1.07.06,1.7.06,2.63.13,5.91,1.28,8a3.22,3.22,0,0,0,2.69,2c2.23,0,2.64-2.36,2.94-4.08,0-.2.07-.4.11-.6.24-1.29.48-2.58.71-3.88s.5-2.79.77-4.19c.07-.4.14-.83.21-1.27.27-1.7.6-3.82,1.63-4.47a6.54,6.54,0,0,1,3.24-.52c1.23,0,2.52.11,3.67.21.55,0,1.06.09,1.5.11,14.92.89,27.9,10.19,36.16,17.84a187.06,187.06,0,0,1,16,16.7,62.29,62.29,0,0,1,6.51,10.08,79.23,79.23,0,0,0,5.51,8.89,16.07,16.07,0,0,1,2.23,4.67,32.78,32.78,0,0,0,1.37,3.48c.36.74.71,1.45,1.07,2.16.8,1.6,1.55,3.11,2.2,4.76.86,2.17,1.8,4.33,2.7,6.42.68,1.57,1.39,3.19,2,4.79a28.12,28.12,0,0,1,1.41,5.12c.28,1.32.56,2.68,1,4.07a10.21,10.21,0,0,0,1.32,2.5,7.75,7.75,0,0,1,.82,1.41,24.71,24.71,0,0,1,1,4.11l.08.41c.27,1.36.51,2.76.75,4.1.44,2.53.9,5.14,1.53,7.73a51.88,51.88,0,0,1,1.55,11.32,40.65,40.65,0,0,0,.83,6.35,43.39,43.39,0,0,1,.73,5,188.61,188.61,0,0,1-.1,20.45l-.1,2.49c-.1,2.56-.37,5.17-.63,7.69-.17,1.71-.36,3.47-.49,5.23a34.79,34.79,0,0,0,.05,4.21c.13,2.38.26,4.62-.5,6.32a21.94,21.94,0,0,1-2.83,4.31c-2.47,3.17-5.54,7.11-2.22,12.94,2.39,4.21.89,8.93-.7,13.93-.31,1-.63,2-.92,3-7.95,27.51-22.65,54.83-42.49,79a166.45,166.45,0,0,1-31.78,29.18,73.92,73.92,0,0,1-20.43,10.36l-2.78.84c-3.09.93-6.29,1.89-9.45,3.1a15.24,15.24,0,0,1-6.08,1.23c-1.16,0-2.48-.1-4-.21-1.2-.09-2.46-.14-3.86-.14-2,0-3.92.09-5.82.17s-3.76.17-5.62.17a37.91,37.91,0,0,1-6.68-.51c-6.4-1.13-13.65-2.41-19.62-5.39a81.07,81.07,0,0,1-32.27-28.73c-.37-.59-.77-1.15-1.16-1.69a15.07,15.07,0,0,1-1.57-2.47,7.5,7.5,0,0,1-.37-1.31,9.55,9.55,0,0,0-.85-2.51,7.73,7.73,0,0,0-3-2.91,3.42,3.42,0,0,1-1.43-1.23,16.7,16.7,0,0,1-1.09-5.5,27.46,27.46,0,0,0-.69-4.69c-.3-1.12-.65-2.17-1-3.18a23.79,23.79,0,0,1-1.44-6c-.15-2.32-.35-4.61-.54-6.83a126,126,0,0,1-.71-15.88,25.07,25.07,0,0,0-.51-5.38,20.22,20.22,0,0,1-.42-4.91c.06-.63.15-1.26.23-1.86.33-2.24.7-4.77-1-7.53a2.09,2.09,0,0,0-1.55-1l-.25,0a2.15,2.15,0,0,0-1.49.61c-3.33,3.27-2.95,8.7-2.64,13.06.06.9.12,1.75.14,2.5.11,3.85.33,7.76.54,11.53.14,2.39.28,4.86.38,7.29a126.91,126.91,0,0,0,2.17,17,25.47,25.47,0,0,1,.28,3.58,24.8,24.8,0,0,0,.45,4.77,40.25,40.25,0,0,0,3.21,8.47l.23.49c5.27,11.3,11.75,20.76,19.26,28.14A99.37,99.37,0,0,0,47.36,357c3,2,5.94,3.83,8.47,5.37.26.17.61.43,1,.7A8.89,8.89,0,0,0,60.44,365a4,4,0,0,0,.67.06,3.07,3.07,0,0,0,1.71-.5,11.59,11.59,0,0,1,.94,1,9.88,9.88,0,0,0,2.06,1.95,14.18,14.18,0,0,0,3.68,1.53l1,.32c.37.12.69.24,1,.35a6.45,6.45,0,0,0,2.3.55,5.13,5.13,0,0,0,3-1.15,3.29,3.29,0,0,0,1-1.13c.34.27.73.66,1,.93A9.37,9.37,0,0,0,81.45,371a6.82,6.82,0,0,0,2.75.61,8.4,8.4,0,0,0,2.31-.37,6.39,6.39,0,0,1,1.62-.27,5.66,5.66,0,0,1,1.41.38,9.33,9.33,0,0,0,2.61.64c.47,0,1,0,1.48,0,1.59,0,3.18-.14,4.72-.29l1.4-.12c9.33-.77,19.87-3.41,31.33-7.84a66.11,66.11,0,0,0,10.71-5.8c.88-.55,1.75-1.09,2.61-1.61l.44-.27a26,26,0,0,0,5.55-4.06,11.51,11.51,0,0,0,1.47-2.1,6.31,6.31,0,0,1,1-1.39,5.58,5.58,0,0,1,1.45-.61,9.77,9.77,0,0,0,3.29-1.6c1.67-1.3,3.23-2.75,4.74-4.16l1.25-1.16c3.76-3.45,7.64-7.21,11.51-11.17,6.69-6.84,14.36-15.12,20.59-24.63,4.8-7.34,8.89-15,12.84-22.5,1-1.81,1.92-3.63,2.9-5.45,5.31-9.89,9.49-18.53,12.62-28.56.7-2.22,1.38-4.45,2.07-6.67.87-2.81,1.73-5.62,2.62-8.43.2-.64.38-1.28.56-1.9,1.25-4.32,1.84-5.41,4.35-5.41.29,0,.61,0,.95,0l1.59.28a1.78,1.78,0,0,0,.17.3c0,.1.08.22.12.34a6.67,6.67,0,0,0,.59,1.31,9.49,9.49,0,0,0,3.75,2.89c.39.21.76.4,1.05.58.87.54,1.73,1.11,2.57,1.66a41.66,41.66,0,0,0,9,4.89,55.85,55.85,0,0,0,18.72,3.28,54.62,54.62,0,0,0,15-2.12,61.91,61.91,0,0,0,25-14.25,47.19,47.19,0,0,0,5.72-7.23c.19-.29.38-.63.61-1a12.14,12.14,0,0,1,1.31-2c1,.46,2.8,2.62,5.44,6.44.54.78,1,1.4,1.3,1.81,1.46,1.82,3.07,3.56,4.62,5.25a73.68,73.68,0,0,1,5.7,6.67c.35.49.7,1,1.06,1.56,1.79,2.71,4,6.08,8.49,6.08a10.6,10.6,0,0,0,1.24-.08c2.6-.35,4.43-1.38,5.46-3.06,1.68-2.74.67-6.27-.41-9.36a71.69,71.69,0,0,1-1.94-7,75,75,0,0,0-2.19-7.82c-.47-1.29-1.05-2.52-1.61-3.7a30.54,30.54,0,0,1-1.67-4,9.09,9.09,0,0,1-.21-3,13.93,13.93,0,0,0-.2-3.74,23.24,23.24,0,0,0-2.22-5.54A23.34,23.34,0,0,1,341,192a52.18,52.18,0,0,0,16.09,2.86c.49,0,1,0,1.48,0a69.28,69.28,0,0,0,9.93-1.3,21.43,21.43,0,0,0,2.67-.75,12.58,12.58,0,0,1,3.46-.81,2.09,2.09,0,0,1,.71.1,6,6,0,0,1,2,1.83,16.12,16.12,0,0,0,1.44,1.56,31.61,31.61,0,0,0,9.3,5.71c5.92,2.51,12.27,3.82,18.41,5.09l.28.05a133.26,133.26,0,0,0,26.92,3.11,86,86,0,0,0,9.92-.56,48.42,48.42,0,0,0,8.17-1.9,39,39,0,0,1,8.18-1.81c.79-.07,1.62-.1,2.41-.13,3.77-.15,7.67-.31,11.18-3.32s6.91-8.11,9.05-13.61a38.13,38.13,0,0,0,2-9.2,45.4,45.4,0,0,1,1.18-6.43,52.65,52.65,0,0,0,2.35-16.23c0-.37,0-.75-.09-1.11,0-.14,0-.33-.06-.53a7.53,7.53,0,0,1,1.49,1.5A47.79,47.79,0,0,1,492,160.3c.36.65.7,1.29,1.05,1.9a8.6,8.6,0,0,1,.8,2.48,14.33,14.33,0,0,0,1,3.17,58,58,0,0,0,3.41,5.82,48.66,48.66,0,0,1,3.48,6c3.6,7.9,9.38,19.09,18,25.12a12.75,12.75,0,0,0,7.4,2.38c7.7,0,15.29-7,19.09-13.49,4.71-8.07,7.38-16.18,10.21-24.76l1-3.07c2,2.78,4.12,5.43,6.18,8,1.92,2.4,3.91,4.89,5.76,7.42a30.44,30.44,0,0,0,19.42,12.38,32.34,32.34,0,0,0,5.34.47,25.43,25.43,0,0,0,5.91-.67,17.14,17.14,0,0,0,3.29-1.34,12.65,12.65,0,0,1,4-1.45l.18,0c.59.76,1.28,3.84,1.62,5.35a28.78,28.78,0,0,0,.87,3.3l.06.15c1.32,3.45,2.07,5.68.91,8.12a26.61,26.61,0,0,1-2.26,3.64,25.61,25.61,0,0,0-3.09,5.33l-.42,1.1a27.8,27.8,0,0,1-2.76,5.79c-3.67,5.41-7.29,10.67-11.24,15.62-6.88,8.61-12.74,17.88-18.4,26.84-1.75,2.78-3.57,5.66-5.4,8.48l0,.05c-7.67,11.85-15.59,24.1-22.71,36.55-3.64,6.37-7.17,12.91-10.59,19.23-3.21,5.94-6.52,12.07-9.9,18a38.75,38.75,0,0,0-2.25,4.9,37.82,37.82,0,0,1-1.78,4c-.71,1.31-1.52,2.56-2.39,3.89a49.39,49.39,0,0,0-2.92,4.87c-1,2-2,4.08-2.92,6.06a123.18,123.18,0,0,1-6.14,11.86,161,161,0,0,0-9.66,18.61c-.82,1.87-1.71,3.75-2.58,5.58a105.84,105.84,0,0,0-5,11.78,89.85,89.85,0,0,1-6.79,14.25c-1.07,1.95-2.17,4-3.17,5.93-3,5.83-5.85,11.87-8.39,17.2a31.29,31.29,0,0,0-1.82,5.29,24.06,24.06,0,0,1-1.86,5.2c-.33.6-.66,1.17-1,1.72a22.17,22.17,0,0,0-3,6.93l-.06.27c-1.07,5-3.05,14.38,4.66,17.13a2,2,0,0,0,.72.13,2.13,2.13,0,0,0,1.46-.58,2.15,2.15,0,0,0,.58-2.15c-1.35-4.61-.41-6.41,1.65-10.37.26-.49.52-1,.8-1.54,1.32-2.61,2.38-5.37,3.41-8,.73-1.92,1.49-3.9,2.32-5.75,3.73-8.27,7.78-16.6,11.7-24.66,5.18-10.67,10.55-21.69,15.24-32.76a41.43,41.43,0,0,1,3-5.5,50.66,50.66,0,0,0,3.09-5.58c.72-1.61,1.54-3.1,2.4-4.69.39-.71.78-1.43,1.16-2.16a16.22,16.22,0,0,0,1.33-3.78,18.08,18.08,0,0,1,.65-2.15,24.86,24.86,0,0,1,2.94-4.8,42.4,42.4,0,0,0,2.67-4.06,58.07,58.07,0,0,0,3.06-6.91,50.58,50.58,0,0,1,3.08-6.83c1.63-2.82,3-5.67,4.28-8.43.74-1.57,1.51-3.2,2.32-4.8,1.2-2.36,2.63-4.59,4.14-6.95,1.25-2,2.54-4,3.68-6.08s2.25-4.49,3.26-6.71a77.35,77.35,0,0,1,4-8c1.28-2.12,2.64-4.26,4-6.32s2.46-3.87,3.66-5.84c1-1.66,2.15-3.27,3.24-4.83a66.8,66.8,0,0,0,4.66-7.29c2-3.72,4.34-8.11,7.24-12.52,3.76-5.71,7.27-11.63,10.67-17.36,2-3.39,4.09-6.89,6.19-10.31a65.12,65.12,0,0,1,5.2-6.92c1.53-1.85,3.11-3.77,4.5-5.8s3-4.09,4.51-6,2.95-3.82,4.34-5.81l.52-.74c2.95-4.22,5.74-8.2,8.3-12.73l.19-.36c.2-.37.38-.68.53-.93a4.92,4.92,0,0,0,.72,1c2.9,3,7.43,4.73,12.76,4.72,6.28,0,12.94-2.3,17-5.86a25,25,0,0,0,1.93-1.94,13.19,13.19,0,0,1,2.32-2.16,15.61,15.61,0,0,0,4.66-4.21,37.42,37.42,0,0,0,5.61-11.54c.37-1.16.76-2.29,1.14-3.4,1.48-4.38,2.88-8.51,3.3-13.44.06-.76.09-1.51.12-2.24a20.23,20.23,0,0,1,.47-4.3c.2-.73.46-1.44.73-2.19a16.84,16.84,0,0,0,1.22-4.78c.12-1.77.1-5-1.4-6.58a3.15,3.15,0,0,0-2.31-1,4.71,4.71,0,0,0-3.27,1.64A6.4,6.4,0,0,0,661,164.8a8.73,8.73,0,0,1-.12.93,25.68,25.68,0,0,1-1.29,4.22c-.2.55-.4,1.1-.59,1.66-1,3-1.84,6.23-2.62,9.36-1.61,6.41-3.26,13-6.88,18.09-2.44,3.4-5.55,5.33-10.73,6.66l-1.64.44a22.06,22.06,0,0,1-5.54,1,7.75,7.75,0,0,1-3.45-.78,5,5,0,0,1-1.2-.76,11.55,11.55,0,0,1,1.13-1.7c.37-.5.79-1.06,1.2-1.68,2.83-4.33,6-8.74,9.54-13.47,5.1-6.71,10.42-13.94,16.73-22.73l2-2.74c5.28-7.35,10.73-15,16.32-22.18a80.18,80.18,0,0,1,5.42-6.09c1.37-1.45,2.8-2.95,4.14-4.52a66.78,66.78,0,0,0,5.31-7.49c.84-1.31,1.7-2.66,2.59-3.94,1.74-2.48,3.59-6.07,2.58-9.1" transform="translate(-5.83 -6.07)"/><path class="cls-4" d="M636.84,53.6V50.94a.48.48,0,0,0-.49-.49h-8.79a.48.48,0,0,0-.49.49V53.6a.48.48,0,0,0,.49.49h2.59v21.1a.48.48,0,0,0,.49.49h3a.45.45,0,0,0,.46-.49V54.09h2.24a.48.48,0,0,0,.49-.49m-20.72,6.72c0,.8-.21,1.29-.88,1.29h-1V53.74h1c.49,0,.81.31.81.91Zm4.3,14.84-2.8-10.54a4.19,4.19,0,0,0,2.45-4.16V54.65c0-2.77-1.78-4.2-5-4.2h-4.3a.48.48,0,0,0-.49.49V75.19a.48.48,0,0,0,.49.49h3a.48.48,0,0,0,.49-.49V65.11h.35l1.68,10.08a.53.53,0,0,0,.6.49H620c.42,0,.56-.17.45-.52m-17.81,0V72.88a.48.48,0,0,0-.49-.49h-4.27V64.31h4.27a.48.48,0,0,0,.49-.49V61.51a.48.48,0,0,0-.49-.49h-4.27V53.74h4.27a.48.48,0,0,0,.49-.49V50.94a.48.48,0,0,0-.49-.49h-7.74a.48.48,0,0,0-.49.49V75.19a.48.48,0,0,0,.49.49h7.74a.48.48,0,0,0,.49-.49M582.41,59.9c0,.7-.28,1.12-1,1.12h-.87V53.74h.87c.67,0,1,.38,1,1.08Zm4-.53v-4c0-3-1.61-4.9-5-4.9h-4.31a.48.48,0,0,0-.49.49V75.19a.48.48,0,0,0,.49.49h3a.48.48,0,0,0,.49-.49V64.31h1.26c3,0,4.55-2,4.55-4.94M569.26,51c.14-.38,0-.52-.43-.52h-3.32c-.49,0-.49.07-.63.52l-2.24,7.81-2-7.81c-.1-.42-.14-.52-.56-.52H556.8c-.46,0-.63.21-.53.52l4,11.55-4,12.6c-.11.39.1.56.38.56H560c.49,0,.52-.1.63-.56l2-8.05,2.24,8.05c.1.42.14.56.56.56h3.29c.42,0,.55-.21.45-.56l-4.3-12.6ZM549.1,75.19V72.88a.48.48,0,0,0-.49-.49h-4.27V64.31h4.27a.48.48,0,0,0,.49-.49V61.51a.48.48,0,0,0-.49-.49h-4.27V53.74h4.27a.48.48,0,0,0,.49-.49V50.94a.48.48,0,0,0-.49-.49h-7.74a.48.48,0,0,0-.49.49V75.19a.48.48,0,0,0,.49.49h7.74a.48.48,0,0,0,.49-.49m-28,0V50.94a.48.48,0,0,0-.49-.49h-3a.48.48,0,0,0-.49.49v13.4c0,.56.07,1.79.1,2.56-.14-.67-.35-1.79-.49-2.28L512.52,50.9c-.1-.35-.17-.45-.52-.45h-3.54a.48.48,0,0,0-.49.49V75.16a.52.52,0,0,0,.56.52h2.87a.5.5,0,0,0,.53-.52V61.82c0-.73-.07-2-.11-2.55a20.37,20.37,0,0,0,.49,2.27l4.27,13.65c.11.39.28.49.74.49h3.32a.48.48,0,0,0,.49-.49m-21,0V50.94a.48.48,0,0,0-.49-.49h-3a.48.48,0,0,0-.49.49V75.19a.48.48,0,0,0,.49.49h3a.48.48,0,0,0,.49-.49m-11.31,0V72.88a.48.48,0,0,0-.49-.49H484V50.94a.48.48,0,0,0-.49-.49h-3a.48.48,0,0,0-.49.49V75.19a.48.48,0,0,0,.49.49h7.73a.48.48,0,0,0,.49-.49M468.25,60.32c0,.8-.21,1.29-.88,1.29h-1V53.74h1.05c.49,0,.81.31.81.91Zm4.3,14.84-2.8-10.54a4.19,4.19,0,0,0,2.45-4.16V54.65c0-2.77-1.78-4.2-5-4.2h-4.3a.48.48,0,0,0-.49.49V75.19a.48.48,0,0,0,.49.49h3a.48.48,0,0,0,.49-.49V65.11h.35l1.68,10.08a.53.53,0,0,0,.6.49h3.08c.42,0,.56-.17.45-.52m-17.81,0V72.88a.48.48,0,0,0-.49-.49H450V64.31h4.27a.48.48,0,0,0,.49-.49V61.51a.48.48,0,0,0-.49-.49H450V53.74h4.27a.48.48,0,0,0,.49-.49V50.94a.48.48,0,0,0-.49-.49h-7.74a.48.48,0,0,0-.49.49V75.19a.48.48,0,0,0,.49.49h7.74a.48.48,0,0,0,.49-.49m-20.55-4c0,.59-.21,1-.73,1h-1.12V64.31h1.12c.56,0,.73.42.73.94Zm0-11.24c0,.63-.17,1.09-.73,1.09h-1.12V53.74h1c.59,0,.87.49.87,1.19Zm4,10.4V65.6a2.76,2.76,0,0,0-1.89-2.8,3.11,3.11,0,0,0,1.89-3V55.45c0-3-1.75-5-4.83-5h-4.45a.48.48,0,0,0-.49.49V75.19a.48.48,0,0,0,.49.49h4.59c3.46,0,4.69-2.66,4.69-5.35m-28.84,4.86V72.88a.48.48,0,0,0-.49-.49h-4.27V64.31h4.27a.48.48,0,0,0,.49-.49V61.51a.48.48,0,0,0-.49-.49h-4.27V53.74h4.27a.48.48,0,0,0,.49-.49V50.94a.48.48,0,0,0-.49-.49h-7.74a.48.48,0,0,0-.49.49V75.19a.48.48,0,0,0,.49.49h7.74a.48.48,0,0,0,.49-.49m-16.59,0V50.94a.45.45,0,0,0-.46-.49h-3a.48.48,0,0,0-.49.49V61h-1.85V50.94a.45.45,0,0,0-.46-.49h-3a.48.48,0,0,0-.49.49V75.19a.48.48,0,0,0,.49.49h3a.48.48,0,0,0,.49-.49V64.31h1.85V75.19a.48.48,0,0,0,.49.49h3a.48.48,0,0,0,.49-.49M376,53.6V50.94a.48.48,0,0,0-.49-.49h-8.78a.48.48,0,0,0-.49.49V53.6a.48.48,0,0,0,.49.49h2.59v21.1a.48.48,0,0,0,.49.49h3a.45.45,0,0,0,.45-.49V54.09h2.24a.48.48,0,0,0,.49-.49M348.16,64.17V61.51a.45.45,0,0,0-.45-.49H341a.48.48,0,0,0-.49.49v2.66a.48.48,0,0,0,.49.49h6.76a.45.45,0,0,0,.45-.49m-27,6.4V62.21a.48.48,0,0,0-.49-.49h-4a.48.48,0,0,0-.49.49v2.31a.48.48,0,0,0,.49.49h.49v6.26c0,.67-.28,1.12-.88,1.12s-1-.49-1-1.12V54.72c0-.63.21-1.16,1-1.16.59,0,.91.42.91,1.16v1.75a.45.45,0,0,0,.49.45h3a.45.45,0,0,0,.49-.45V55.38c0-3.15-1.78-5.11-4.86-5.11a4.75,4.75,0,0,0-4.9,5.11V70.57c0,3,1.57,5.32,4.93,5.32,3.12,0,4.83-2.31,4.83-5.32M299.62,60.32c0,.8-.21,1.29-.88,1.29h-1V53.74h1.05c.49,0,.81.31.81.91Zm4.3,14.84-2.8-10.54a4.19,4.19,0,0,0,2.45-4.16V54.65c0-2.77-1.78-4.2-5-4.2h-4.3a.48.48,0,0,0-.49.49V75.19a.48.48,0,0,0,.49.49h3a.48.48,0,0,0,.49-.49V65.11h.35l1.68,10.08a.53.53,0,0,0,.6.49h3.08c.42,0,.56-.17.45-.52m-17.81,0V72.88a.48.48,0,0,0-.49-.49h-4.27V64.31h4.27a.48.48,0,0,0,.49-.49V61.51a.48.48,0,0,0-.49-.49h-4.27V53.74h4.27a.48.48,0,0,0,.49-.49V50.94a.48.48,0,0,0-.49-.49h-7.74a.48.48,0,0,0-.49.49V75.19a.48.48,0,0,0,.49.49h7.74a.48.48,0,0,0,.49-.49m-20.55-4c0,.59-.21,1-.73,1h-1.12V64.31h1.12c.56,0,.73.42.73.94Zm0-11.24c0,.63-.17,1.09-.73,1.09h-1.12V53.74h1c.59,0,.87.49.87,1.19Zm4,10.4V65.6a2.76,2.76,0,0,0-1.89-2.8,3.11,3.11,0,0,0,1.89-3V55.45c0-3-1.75-5-4.83-5h-4.45a.48.48,0,0,0-.49.49V75.19a.48.48,0,0,0,.49.49h4.59c3.46,0,4.69-2.66,4.69-5.35m-17.46.24v-4a4.94,4.94,0,0,0-2.49-4.62l-1.15-.74c-1-.66-2.17-1.15-2.17-2.52v-4c0-.77.35-1.16.94-1.16s.91.39.91,1.16v1.71a.48.48,0,0,0,.49.49h3a.48.48,0,0,0,.49-.49v-1c0-3-1.68-5.11-4.83-5.11a4.74,4.74,0,0,0-4.94,5.11v4.06A5,5,0,0,0,245,63.78l1.37.88c1.05.66,1.71,1,1.71,2.76v3.85c0,.7-.28,1.12-.91,1.12s-.94-.49-.94-1.12V69.73a.48.48,0,0,0-.49-.49h-3a.48.48,0,0,0-.49.49v.84c0,3.08,1.68,5.32,4.9,5.32s4.87-2.27,4.87-5.32m-17.47,4.62V50.94a.48.48,0,0,0-.49-.49h-3a.48.48,0,0,0-.49.49v13.4c0,.56.07,1.79.1,2.56-.14-.67-.35-1.79-.49-2.28L226,50.9c-.1-.35-.17-.45-.52-.45h-3.54a.48.48,0,0,0-.49.49V75.16a.52.52,0,0,0,.56.52h2.87a.5.5,0,0,0,.53-.52V61.82c0-.73-.07-2-.11-2.55a20.37,20.37,0,0,0,.49,2.27L230,75.19c.11.39.28.49.74.49h3.32a.48.48,0,0,0,.49-.49m-21,0V50.94a.48.48,0,0,0-.49-.49h-3a.48.48,0,0,0-.49.49V75.19a.48.48,0,0,0,.49.49h3a.48.48,0,0,0,.49-.49m-11.83,0V50.94a.45.45,0,0,0-.46-.49h-4c-.49,0-.56.17-.63.49l-3.12,13.68a23.63,23.63,0,0,0-.35,2.59,23.63,23.63,0,0,0-.35-2.59l-3-13.68c-.07-.32-.11-.49-.67-.49h-3.95a.48.48,0,0,0-.49.49V75.19a.48.48,0,0,0,.49.49h3a.48.48,0,0,0,.49-.49V62.7c0-.63-.07-2-.1-2.77.1.67.31,2,.45,2.63l1.72,7.59c0,.21.14.42.42.42h4c.28,0,.39-.14.46-.42l1.89-7.63c.14-.52.28-1.47.42-2.38,0,.74-.11,1.89-.11,2.56V75.19a.48.48,0,0,0,.49.49h3a.48.48,0,0,0,.49-.49M166,51c.11-.39,0-.56-.42-.56h-3.29c-.49,0-.56.07-.63.52l-1.5,9.38c-.14.84-.28,2.42-.35,3.15-.07-.73-.25-2.34-.39-3.15L157.73,51c-.07-.45-.14-.52-.56-.52h-3.25c-.46,0-.6.14-.49.56l4.34,15.82v8.36a.5.5,0,0,0,.52.49h3a.45.45,0,0,0,.45-.49V66.83ZM146.08,75.19V50.94a.45.45,0,0,0-.46-.49h-4c-.49,0-.56.17-.63.49l-3.12,13.68a23.63,23.63,0,0,0-.35,2.59,23.63,23.63,0,0,0-.35-2.59l-3-13.68c-.07-.32-.11-.49-.67-.49h-3.95a.48.48,0,0,0-.49.49V75.19a.48.48,0,0,0,.49.49h3a.48.48,0,0,0,.49-.49V62.7c0-.63-.07-2-.1-2.77.1.67.31,2,.45,2.63l1.72,7.59c0,.21.14.42.42.42h4c.28,0,.39-.14.46-.42l1.89-7.63c.14-.52.28-1.47.42-2.38,0,.74-.11,1.89-.11,2.56V75.19a.48.48,0,0,0,.49.49h3a.48.48,0,0,0,.49-.49m-24.71,0V72.88a.48.48,0,0,0-.49-.49h-4.27V64.31h4.27a.48.48,0,0,0,.49-.49V61.51a.48.48,0,0,0-.49-.49h-4.27V53.74h4.27a.48.48,0,0,0,.49-.49V50.94a.48.48,0,0,0-.49-.49h-7.74a.48.48,0,0,0-.49.49V75.19a.48.48,0,0,0,.49.49h7.74a.48.48,0,0,0,.49-.49M100.82,60.32c0,.8-.21,1.29-.87,1.29H99V53.74h1c.49,0,.8.31.8.91Zm4.31,14.84-2.8-10.54a4.21,4.21,0,0,0,2.45-4.16V54.65c0-2.77-1.79-4.2-5-4.2H95.5a.48.48,0,0,0-.49.49V75.19a.48.48,0,0,0,.49.49h3a.48.48,0,0,0,.49-.49V65.11h.35L101,75.19a.52.52,0,0,0,.59.49h3.08c.42,0,.56-.17.46-.52m-17.82,0V72.88a.48.48,0,0,0-.49-.49H82.55V64.31h4.27a.48.48,0,0,0,.49-.49V61.51a.48.48,0,0,0-.49-.49H82.55V53.74h4.27a.48.48,0,0,0,.49-.49V50.94a.48.48,0,0,0-.49-.49H79.09a.48.48,0,0,0-.49.49V75.19a.48.48,0,0,0,.49.49h7.73a.48.48,0,0,0,.49-.49M70.72,71v-20a.48.48,0,0,0-.49-.49H64.35a.48.48,0,0,0-.49.49V53.6a.48.48,0,0,0,.49.49h2.42V71c0,1-.42,1.47-1.23,1.47H64.35a.48.48,0,0,0-.49.49v2.27a.48.48,0,0,0,.49.49h1.54c3.12,0,4.83-1.82,4.83-4.72" transform="translate(-5.83 -6.07)"/></g></svg>