<svg id="Ebene_1" data-name="Ebene 1" xmlns="http://www.w3.org/2000/svg" xmlns:xlink="http://www.w3.org/1999/xlink" viewBox="0 0 264.85 75.89"><defs><style>.cls-1{fill:none;}.cls-2{clip-path:url(#clip-path);}.cls-3{fill:#82cdf0;}.cls-4{fill:#fff;}</style><clipPath id="clip-path" transform="translate(-17.7 -12.06)"><rect class="cls-1" width="300" height="100"/></clipPath></defs><title>The Berlin Expert Blog</title><g class="cls-2"><path class="cls-3" d="M46.7,87.48H39a3.06,3.06,0,0,1-.11-.59q0-15.86,0-31.73c0-.11,0-.23,0-.35h-4v30.8c0,.29,0,.52-.37.59-.54.09-1.06.26-1.59.37-.91.19-1.83.35-2.74.54-.41.09-.81.24-1.22.37H22c0-.21,0-.41,0-.61V53.59c0-1,0-1.06-1-1-.47,0-.7-.11-.63-.62a5.53,5.53,0,0,0,0-.91c0-.73,0-.76.73-.76a4.13,4.13,0,0,1,.5,0c.35,0,.43-.12.43-.45,0-.95,0-1.91,0-2.85a1.11,1.11,0,0,0-.32-.72,12.12,12.12,0,0,0-1.17-.86c-.41-.28-.82-.57-1.24-.83a2.62,2.62,0,0,1-1.1-1.6,13.81,13.81,0,0,0-.37-1.44,1.11,1.11,0,0,1,1-1.56c1.13,0,2.25,0,3.37,0,.33,0,.42-.16.42-.42,0-1.34,0-2.67-.09-4a1.86,1.86,0,0,0-.23-.93A14.49,14.49,0,0,0,21.08,33c-.3-.34-.64-.53-.22-1.1.27-.38.43-.67.94-.67H55.23c0-.12,0-.35,0-.59,0-.87.09-1,.94-1l2.19,0c.51,0,.62-.19.37-.63s-.66-1.07-.93-1.63a1.52,1.52,0,0,1-.14-.91,19.85,19.85,0,0,1,.52-2.12.71.71,0,0,0-.28-.92.83.83,0,0,1-.26-.41,13.32,13.32,0,0,1-.32-1.39.63.63,0,0,1,.15-.48,1.31,1.31,0,0,1,1.51.23c.48.8.93,1.61,1.39,2.41.2.35.42.68.87.7.61,0,1.22,0,1.83,0a.63.63,0,0,0,.67-.57c.36-1.74.76-3.47,1.13-5.22a.7.7,0,0,1,.81-.64,11.38,11.38,0,0,0,1.43,0c.19,0,.53-.17.53-.27,0-.61.25-1.27-.36-1.8A1,1,0,0,1,67,14.68a.86.86,0,0,0-.11-1.22,4.1,4.1,0,0,1-.36-.49c-.19-.27-.32-.56,0-.81s.53,0,.69.27c.27.4.54.42.92.1a.61.61,0,0,1,.58,0c.48.46.75.18,1.08-.19a.65.65,0,0,1,.6-.14c.28.1.3.38.14.64a5.64,5.64,0,0,0-.59.88,1,1,0,0,0-.06.78,1.06,1.06,0,0,1-.07,1.45,2.22,2.22,0,0,0-.43,1.8c0,.33.15.46.46.45h1.33c.72,0,.82.1,1,.81.38,1.69.78,3.38,1.15,5.07a.65.65,0,0,0,.74.59l1.63,0a.92.92,0,0,0,.85-.54c.49-.85,1-1.68,1.5-2.52a1.23,1.23,0,0,1,1.46-.32c.11.07.24.26.21.36-.2.72-.1,1.53-.73,2.11a.73.73,0,0,0-.12.55c.15.73.33,1.45.51,2.18a1.36,1.36,0,0,1-.17,1.16c-.32.48-.59,1-.88,1.49s-.15.66.38.67,1.29,0,1.93,0c1,0,1.19.11,1.16,1.14a3.26,3.26,0,0,0,0,.54l.26,0c1.07-.05,2.14-.14,3.21-.15,1.59,0,3.19,0,4.79,0,8.32,0,16.64,0,25,0a.9.9,0,0,1,.91.65,1.12,1.12,0,0,1,0,.9c-.42.66-1,1.25-1.42,1.89a1.62,1.62,0,0,0-.38.83c0,1.32,0,2.64,0,4,0,.34.15.52.52.51.82,0,1.64,0,2.45,0s1.65,0,2.15.83v.41c-.07.07-.18.13-.2.21-.12.44-.18.9-.31,1.34a2.53,2.53,0,0,1-.47,1.05c-.75.67-1.57,1.26-2.36,1.89-.35.28-.93.55-1,.87-.12,1.2,0,2.43,0,3.7a3.56,3.56,0,0,1,1,0c.24.08.57.32.6.53a12.23,12.23,0,0,1,0,1.73c-.42,0-.77,0-1.12,0s-.52.11-.52.52q0,16.85,0,33.7c0,.24,0,.48,0,.72h-6.94c-.52-.14-1-.28-1.57-.4l-1.66-.34c-.58-.12-1.16-.29-1.76-.36s-.82-.23-.82-.86V67.75c0-4.13,0-8.25,0-12.38,0-.5-.15-.63-.63-.62-1,0-2,0-3.06,0-.46,0-.57.14-.57.58q0,15.59,0,31.17c0,.32,0,.64,0,1H90.11c-.51-.21-1-.43-1.54-.61-.76-.28-1.52-.52-2.29-.78a.81.81,0,0,1-.59-.89c0-10,0-19.9,0-29.84,0-.45-.13-.59-.58-.58-1.5,0-2,0-3.46,0-.53,0-.64.12-.64.64q0,15.74,0,31.47a4,4,0,0,1-.1.59H70.73c0-.19,0-.38,0-.56V74.69c0-6.45,0-12.9,0-19.35,0-.46-.14-.57-.58-.56-1.76,0-.45,0-2.21,0H66.53a2.45,2.45,0,0,0-.35.05V73.72q0,6.57,0,13.14a2.24,2.24,0,0,1-.2.62H55.87c0-.21,0-.41,0-.61q0-15.75,0-31.48c0-.46-.12-.62-.6-.61-1.51,0-2,0-3.51,0-.44,0-.57.11-.57.56q0,15,0,30v.52l-2,.75c-.55.19-1.12.35-1.68.55a6.4,6.4,0,0,0-.8.37" transform="translate(-17.7 -12.06)"/><path class="cls-4" d="M282.55,76.08V57.44a1.06,1.06,0,0,0-1.1-1.09h-8.81a1.06,1.06,0,0,0-1.09,1.09v5.15a1.06,1.06,0,0,0,1.09,1.09h1.09v14c0,1.49-.62,2.5-2,2.5-1.56,0-2.18-1.09-2.18-2.5V40.74c0-1.4.46-2.57,2.1-2.57,1.33,0,2,.93,2,2.57v3.9a1,1,0,0,0,1.09,1h6.63a1,1,0,0,0,1.1-1V42.23c0-7-4-11.4-10.85-11.4-6.24,0-10.92,4.3-10.92,11.4V76.08c0,6.64,3.51,11.86,11,11.86,6.94,0,10.77-5.15,10.77-11.86M241,77.64c0,1.49-.62,2.5-1.95,2.5-1.48,0-2.18-1-2.18-2.5V40.74c0-1.4.54-2.57,2.1-2.57s2,1,2,2.57Zm8.82-1.56V42.23c0-7-4.06-11.4-10.77-11.4-6.47,0-11,4.37-11,11.4V76.08c0,7.1,3.9,11.86,11,11.86,6.63,0,10.77-4.83,10.77-11.86m-30.74,10.3V81.23A1.07,1.07,0,0,0,218,80.14h-9.52V32.32a1.06,1.06,0,0,0-1.09-1.09h-6.63a1.06,1.06,0,0,0-1.1,1.09V86.38a1.07,1.07,0,0,0,1.1,1.1H218a1.07,1.07,0,0,0,1.09-1.1m-39.16-9c0,1.33-.47,2.34-1.64,2.34h-2.5V62.12h2.5c1.25,0,1.64.94,1.64,2.11Zm0-25c0,1.4-.39,2.42-1.64,2.42h-2.5V38.56H178c1.32,0,2,1.09,2,2.65Zm8.81,23.17V65c0-3.36-1.87-5.54-4.21-6.25A6.93,6.93,0,0,0,188.77,52v-9.6c0-6.71-3.9-11.15-10.76-11.15H168.1a1.06,1.06,0,0,0-1.1,1.09V86.38a1.07,1.07,0,0,0,1.1,1.1h10.22c7.72,0,10.45-5.93,10.45-11.94" transform="translate(-17.7 -12.06)"/></g></svg>