<?xml version="1.0" encoding="utf-8"?>
<!-- Generator: Adobe Illustrator 24.0.3, SVG Export Plug-In . SVG Version: 6.00 Build 0)  -->
<svg version="1.1" id="Ebene_1" xmlns="http://www.w3.org/2000/svg" xmlns:xlink="http://www.w3.org/1999/xlink" x="0px" y="0px"
	 viewBox="0 0 30 30" style="enable-background:new 0 0 30 30;" xml:space="preserve">
<style type="text/css">
	.st0{fill:#AFAFAF;}
</style>
<g id="Background_xA0_Image_1_">
</g>
<g id="Row_1_1_">
	<g>
		<path class="st0" d="M22.5,15.1c0,4.2-3.4,7.7-7.7,7.7s-7.6-3.5-7.6-7.7c0-0.5,0-1,0.2-1.5H2.2v10.2c0,2.2,1.8,3.9,3.9,3.9h17.4
			c2.2,0,3.9-1.8,3.9-3.9V13.5h-5.1C22.4,14,22.5,14.5,22.5,15.1z M23.5,2.3H6.2c-2.2,0-3.9,1.8-3.9,3.9v4.3h6.4
			c1.3-2,3.6-3.3,6.3-3.3c2.6,0,4.8,1.3,6.3,3.3h6.5V6.2C27.5,4.1,25.6,2.3,23.5,2.3z M25.5,7.3c0,0.5-0.3,0.8-0.8,0.8h-2.1
			c-0.4,0-0.8-0.3-0.8-0.8V5.2c0-0.5,0.3-0.8,0.8-0.8h2.1c0.4,0,0.8,0.3,0.8,0.8V7.3z M19.5,15.1c0-2.5-2.1-4.7-4.7-4.7
			s-4.7,2.1-4.7,4.7s2.1,4.7,4.7,4.7S19.5,17.6,19.5,15.1z"/>
	</g>
</g>
</svg>
