<?xml version="1.0" encoding="utf-8"?>
<!-- Generator: Adobe Illustrator 24.0.3, SVG Export Plug-In . SVG Version: 6.00 Build 0)  -->
<svg version="1.1" id="Ebene_1" xmlns="http://www.w3.org/2000/svg" xmlns:xlink="http://www.w3.org/1999/xlink" x="0px" y="0px"
	 viewBox="0 0 30 30" style="enable-background:new 0 0 30 30;" xml:space="preserve">
<style type="text/css">
	.st0{fill:#AFAFAF;}
</style>
<g id="Background_xA0_Image_1_">
</g>
<g id="Row_1_1_">
	<g>
		<path class="st0" d="M26,9.4c0,0.2,0,0.5,0,0.7c0,7.5-5.7,16.1-16.1,16.1c-3.2,0-6.2-0.9-8.7-2.5c0.4,0,0.9,0.1,1.4,0.1
			c2.7,0,5.1-0.9,7-2.4c-2.5,0-4.6-1.7-5.3-3.9c0.3,0.1,0.7,0.1,1.1,0.1c0.5,0,1-0.1,1.5-0.2c-2.6-0.6-4.6-2.9-4.6-5.6
			c0,0,0,0,0-0.1c0.8,0.4,1.6,0.7,2.6,0.7c-1.5-1-2.5-2.7-2.5-4.7c0-1,0.3-2,0.8-2.8c2.8,3.4,7,5.7,11.7,5.9
			c-0.1-0.4-0.1-0.8-0.1-1.3c0-3.1,2.5-5.7,5.7-5.7c1.6,0,3.1,0.7,4.1,1.8c1.3-0.3,2.5-0.7,3.6-1.4c-0.4,1.3-1.3,2.4-2.5,3.1
			c1-0.1,2.1-0.4,3.1-0.8C28,7.6,27.1,8.6,26,9.4z"/>
	</g>
</g>
</svg>
